<svg width="213" height="147" viewBox="0 0 213 147" fill="none" xmlns="http://www.w3.org/2000/svg">
<rect x="1.21185" y="0.5" width="210.864" height="145.287" rx="14.5" fill="#006FCF" stroke="#F3F3F3"/>
<path fill-rule="evenodd" clip-rule="evenodd" d="M44.0461 105.67V75.5552H78.1039L81.758 80.015L85.5328 75.5552H209.154V103.594C209.154 103.594 205.921 105.64 202.182 105.67H133.731L129.611 100.923V105.67H116.111V97.5668C116.111 97.5668 114.266 98.6979 110.28 98.6979H105.684V105.67H85.2439L81.5951 101.115L77.8903 105.67H44.0461ZM4.36459 52.8576L12.0273 36.094H25.2793L29.628 45.4843V36.094H46.1013L48.6901 42.881L51.1999 36.094H125.148V39.5061C125.148 39.5061 129.036 36.094 135.424 36.094L159.418 36.1727L163.691 45.4401V36.094H177.477L181.271 41.4174V36.094H195.184V66.2092H181.271L177.635 60.8685V66.2092H157.381L155.344 61.4619H149.899L147.895 66.2092H134.16C128.662 66.2092 125.148 62.8668 125.148 62.8668V66.2092H104.438L100.327 61.4619V66.2092H23.3161L21.2806 61.4619H15.8529L13.8319 66.2092H4.36459V52.8576ZM4.40412 62.3558L14.7395 39.8065H22.575L32.9005 62.3558H26.0234L24.1263 57.8404H13.04L11.133 62.3558H4.40412ZM21.9426 52.9449L18.5634 45.0544L15.1743 52.9449H21.9426ZM33.6119 62.352V39.8027L43.174 39.8361L48.7357 54.3744L54.1641 39.8027H63.6497V62.352H57.6422V45.7368L51.274 62.352H46.0054L39.6195 45.7368V62.352H33.6119ZM67.7602 62.352V39.8027H87.3638V44.8467H73.831V48.7038H87.0476V53.451H73.831V57.4565H87.3638V62.352H67.7602ZM90.8419 62.3558V39.8065H104.211C108.64 39.8065 112.609 42.3769 112.609 47.1221C112.609 51.1785 109.263 53.7913 106.019 54.0482L113.924 62.3558H106.582L99.3789 54.3449H96.8494V62.3558H90.8419ZM103.717 44.8505H96.8494V49.5977H103.806C105.01 49.5977 106.562 48.7221 106.562 47.2241C106.562 46.0596 105.364 44.8505 103.717 44.8505ZM121.196 62.352H115.062V39.8027H121.196V62.352ZM135.74 62.352H134.416C128.01 62.352 124.121 57.616 124.121 51.1701C124.121 44.565 127.967 39.8027 136.057 39.8027H142.697V45.1434H135.814C132.53 45.1434 130.207 47.5483 130.207 51.2257C130.207 55.5927 132.863 57.4268 136.689 57.4268H138.27L135.74 62.352ZM138.477 62.3558L148.813 39.8065H156.648L166.974 62.3558H160.097L158.2 57.8404H147.113L145.206 62.3558H138.477ZM156.016 52.9449L152.637 45.0544L149.248 52.9449H156.016ZM167.675 62.352V39.8027H175.313L185.066 53.9702V39.8027H191.073V62.352H183.682L173.683 47.8137V62.352H167.675ZM48.1566 101.813V79.264H67.7602V84.3079H54.2274V88.165H67.444V92.9123H54.2274V96.9177H67.7602V101.813H48.1566ZM144.214 101.813V79.264H163.818V84.3079H150.285V88.165H163.438V92.9123H150.285V96.9177H163.818V101.813H144.214ZM68.521 101.813L78.0659 90.6777L68.2937 79.264H75.8625L81.6823 86.3199L87.5219 79.264H94.7942L85.1505 90.5387L94.713 101.813H87.1454L81.4946 94.8686L75.981 101.813H68.521ZM95.4266 101.817V79.2678H108.697C114.142 79.2678 117.323 82.5609 117.323 86.8522C117.323 92.0325 113.267 94.6963 107.916 94.6963H101.592V101.817H95.4266ZM108.252 84.3674H101.592V89.5596H108.232C109.987 89.5596 111.216 88.4684 111.216 86.9635C111.216 85.3615 109.981 84.3674 108.252 84.3674ZM119.931 101.813V79.264H133.3C137.73 79.264 141.699 81.8344 141.699 86.5795C141.699 90.636 138.352 93.2487 135.108 93.5057L143.013 101.813H135.671L128.468 93.8024H125.939V101.813H119.931ZM132.806 84.3079H125.939V89.0551H132.895C134.099 89.0551 135.652 88.1796 135.652 86.6815C135.652 85.5171 134.453 84.3079 132.806 84.3079ZM166.6 101.813V96.9177H178.623C180.402 96.9177 181.173 96.0156 181.173 95.0263C181.173 94.0783 180.405 93.12 178.623 93.12H173.19C168.468 93.12 165.838 90.42 165.838 86.3663C165.838 82.7507 168.246 79.264 175.264 79.264H186.963L184.433 84.3376H174.315C172.381 84.3376 171.786 85.2899 171.786 86.1994C171.786 87.1342 172.522 88.165 173.999 88.165H179.691C184.955 88.165 187.239 90.9672 187.239 94.6368C187.239 98.582 184.694 101.813 179.404 101.813H166.6ZM187.769 101.813V96.9177H199.792C201.571 96.9177 202.341 96.0156 202.341 95.0263C202.341 94.0783 201.574 93.12 199.792 93.12H194.359C189.636 93.12 187.006 90.42 187.006 86.3663C187.006 82.7507 189.415 79.264 196.433 79.264H208.132L205.602 84.3376H195.484C193.55 84.3376 192.955 85.2899 192.955 86.1994C192.955 87.1342 193.69 88.165 195.168 88.165H200.859C206.124 88.165 208.408 90.9672 208.408 94.6368C208.408 98.582 205.863 101.813 200.573 101.813H187.769Z" fill="white"/>
</svg>
