<svg width="213" height="147" viewBox="0 0 213 147" fill="none" xmlns="http://www.w3.org/2000/svg">
<rect x="0.923706" y="0.703384" width="210.864" height="145.287" rx="14.5" fill="white" stroke="#F3F3F3"/>
<path fill-rule="evenodd" clip-rule="evenodd" d="M32.6856 88.7243C32.6856 85.8555 31.1886 86.0441 29.7565 86.0138V85.1846C30.9982 85.2451 32.2714 85.2451 33.5164 85.2451C34.854 85.2451 36.6699 85.1846 39.0293 85.1846C47.2802 85.1846 51.7745 90.7007 51.7745 96.3496C51.7745 99.5108 49.9264 107.452 38.646 107.452C37.0223 107.452 35.5227 107.389 34.0257 107.389C32.593 107.389 31.1886 107.419 29.7565 107.452V106.622C31.6663 106.429 32.593 106.367 32.6856 104.198V88.7243V88.7243ZM35.8082 103.686C35.8082 106.143 37.5625 106.429 39.1231 106.429C46.0077 106.429 48.2666 101.23 48.2666 96.4777C48.2666 90.5122 44.4437 86.2064 38.2949 86.2064C36.9856 86.2064 36.3831 86.2997 35.8082 86.3338V103.686V103.686Z" fill="#1A1919"/>
<path fill-rule="evenodd" clip-rule="evenodd" d="M52.8923 106.622H53.4961C54.388 106.622 55.0259 106.622 55.0259 105.567V96.9226C55.0259 95.5211 54.5488 95.3273 53.3681 94.6912V94.182C54.8657 93.7312 56.6515 93.1293 56.7775 93.0334C57.002 92.9053 57.1903 92.8711 57.3524 92.8711C57.5086 92.8711 57.5743 93.063 57.5743 93.3206V105.567C57.5743 106.622 58.2765 106.622 59.1697 106.622H59.7092V107.452C58.6257 107.452 57.5086 107.389 56.3654 107.389C55.2182 107.389 54.0703 107.419 52.8923 107.452V106.622V106.622ZM56.3011 87.9601C55.4709 87.9601 54.7397 87.1946 54.7397 86.3654C54.7397 85.5664 55.5056 84.8312 56.3011 84.8312C57.128 84.8312 57.8631 85.5033 57.8631 86.3654C57.8631 87.2282 57.1602 87.9601 56.3011 87.9601V87.9601Z" fill="#1A1919"/>
<path fill-rule="evenodd" clip-rule="evenodd" d="M62.7365 97.1153C62.7365 95.9371 62.3847 95.6185 60.8897 95.0113V94.4055C62.2574 93.9593 63.5628 93.5428 65.0939 92.8719C65.1904 92.8719 65.2829 92.9356 65.2829 93.1906V95.265C67.1022 93.9593 68.6635 92.8719 70.8017 92.8719C73.5063 92.8719 74.4618 94.8503 74.4618 97.3387V105.568C74.4618 106.623 75.1647 106.623 76.056 106.623H76.6309V107.453C75.5119 107.453 74.3982 107.39 73.2523 107.39C72.1044 107.39 70.9566 107.42 69.8094 107.453V106.623H70.3843C71.2768 106.623 71.9115 106.623 71.9115 105.568V97.3091C71.9115 95.4884 70.8017 94.5961 68.9831 94.5961C67.9626 94.5961 66.3376 95.424 65.2829 96.129V105.568C65.2829 106.623 65.9871 106.623 66.8797 106.623H67.452V107.453C66.3376 107.453 65.2219 107.39 64.0727 107.39C62.9281 107.39 61.7796 107.42 60.6337 107.453V106.623H61.2086C62.0999 106.623 62.7365 106.623 62.7365 105.568V97.1153" fill="#1A1919"/>
<path fill-rule="evenodd" clip-rule="evenodd" d="M79.0531 98.6489C78.9881 98.936 78.9881 99.4137 79.0531 100.499C79.2408 103.529 81.1886 106.016 83.7351 106.016C85.49 106.016 86.861 105.059 88.0377 103.881L88.4827 104.327C87.0165 106.273 85.2012 107.933 82.5905 107.933C77.5226 107.933 76.5034 103.017 76.5034 100.977C76.5034 94.7235 80.7082 92.8719 82.9363 92.8719C85.5202 92.8719 88.2943 94.4988 88.3239 97.8814C88.3239 98.0753 88.3239 98.2645 88.2943 98.4564L88.0062 98.6489H79.0531V98.6489ZM84.6952 97.6271C85.49 97.6271 85.5832 97.2119 85.5832 96.8275C85.5832 95.2032 84.5961 93.895 82.811 93.895C80.869 93.895 79.5302 95.328 79.1482 97.6271H84.6952V97.6271Z" fill="#1A1919"/>
<path fill-rule="evenodd" clip-rule="evenodd" d="M89.0577 106.623H89.9187C90.8074 106.623 91.4453 106.623 91.4453 105.568V96.6054C91.4453 95.6185 90.2672 95.424 89.7888 95.169V94.692C92.1147 93.7024 93.3899 92.8719 93.6813 92.8719C93.8676 92.8719 93.9635 92.9678 93.9635 93.2885V96.1599H94.0304C94.8245 94.916 96.1653 92.8719 98.108 92.8719C98.904 92.8719 99.9226 93.414 99.9226 94.5632C99.9226 95.424 99.3201 96.1934 98.4282 96.1934C97.4372 96.1934 97.4372 95.424 96.3209 95.424C95.7801 95.424 93.9956 96.1599 93.9956 98.0753V105.568C93.9956 106.623 94.6322 106.623 95.5248 106.623H97.3073V107.453C95.555 107.42 94.2214 107.39 92.8497 107.39C91.5431 107.39 90.2042 107.42 89.0577 107.453V106.623" fill="#1A1919"/>
<path fill-rule="evenodd" clip-rule="evenodd" d="M101.324 103.016C101.739 105.122 103.011 106.911 105.341 106.911C107.218 106.911 107.919 105.761 107.919 104.645C107.919 100.879 100.974 102.093 100.974 96.9569C100.974 95.1684 102.409 92.8719 105.914 92.8719C106.932 92.8719 108.302 93.161 109.544 93.7997L109.767 97.0509H109.035C108.717 95.0422 107.603 93.8943 105.561 93.8943C104.287 93.8943 103.077 94.6269 103.077 95.9989C103.077 99.7337 110.468 98.5832 110.468 103.592C110.468 105.696 108.781 107.932 104.988 107.932C103.714 107.932 102.214 107.485 101.102 106.847L100.75 103.177L101.324 103.016" fill="#1A1919"/>
<path fill-rule="evenodd" clip-rule="evenodd" d="M139.241 90.9577H138.446C137.84 87.2288 135.195 85.7274 131.629 85.7274C127.96 85.7274 122.641 88.1822 122.641 95.8384C122.641 102.285 127.231 106.911 132.137 106.911C135.288 106.911 137.907 104.741 138.543 101.389L139.276 101.58L138.543 106.239C137.204 107.07 133.603 107.933 131.497 107.933C124.044 107.933 119.329 103.114 119.329 95.937C119.329 89.3952 125.16 84.7043 131.405 84.7043C133.985 84.7043 136.47 85.5362 138.924 86.3982L139.241 90.9577" fill="#1A1919"/>
<path fill-rule="evenodd" clip-rule="evenodd" d="M140.391 106.623H140.994C141.889 106.623 142.525 106.623 142.525 105.568V87.8031C142.525 85.7274 142.048 85.6643 140.836 85.3128V84.8016C142.11 84.3876 143.449 83.8147 144.12 83.429C144.466 83.2404 144.723 83.0774 144.817 83.0774C145.012 83.0774 145.075 83.2713 145.075 83.5275V105.568C145.075 106.623 145.776 106.623 146.668 106.623H147.207V107.453C146.127 107.453 145.012 107.39 143.864 107.39C142.717 107.39 141.571 107.419 140.391 107.453V106.623" fill="#1A1919"/>
<path fill-rule="evenodd" clip-rule="evenodd" d="M160.849 105.696C160.849 106.272 161.198 106.302 161.738 106.302C162.123 106.302 162.599 106.272 163.016 106.272V106.944C161.645 107.07 159.031 107.74 158.424 107.932L158.266 107.835V105.25C156.356 106.813 154.888 107.932 152.623 107.932C150.903 107.932 149.12 106.813 149.12 104.137V95.9673C149.12 95.1368 148.993 94.3391 147.211 94.1821V93.5743C148.359 93.5427 150.903 93.3522 151.318 93.3522C151.672 93.3522 151.672 93.5743 151.672 94.2773V102.507C151.672 103.465 151.672 106.206 154.443 106.206C155.525 106.206 156.959 105.379 158.297 104.264V95.6795C158.297 95.0422 156.768 94.6913 155.623 94.3739V93.8003C158.487 93.6058 160.274 93.3522 160.592 93.3522C160.849 93.3522 160.849 93.5743 160.849 93.9265V105.696" fill="#1A1919"/>
<path fill-rule="evenodd" clip-rule="evenodd" d="M167.188 95.1689C168.462 94.0867 170.184 92.8718 171.936 92.8718C175.633 92.8718 177.864 96.0974 177.864 99.5739C177.864 103.752 174.803 107.933 170.245 107.933C167.889 107.933 166.646 107.164 165.816 106.814L164.863 107.548L164.195 107.198C164.48 105.316 164.641 103.466 164.641 101.519V87.8031C164.641 85.7274 164.161 85.6643 162.95 85.3128V84.8016C164.226 84.3876 165.563 83.8147 166.232 83.429C166.583 83.2404 166.837 83.0774 166.934 83.0774C167.124 83.0774 167.188 83.2719 167.188 83.5275V95.1689V95.1689ZM167.188 103.847C167.188 105.059 168.336 107.102 170.471 107.102C173.879 107.102 175.313 103.752 175.313 100.911C175.313 97.4667 172.703 94.596 170.218 94.596C169.034 94.596 168.048 95.3628 167.188 96.0974V103.847V103.847Z" fill="#1A1919"/>
<path fill-rule="evenodd" clip-rule="evenodd" d="M46.9221 123.102L46.9569 123.068V116.56C46.9569 115.136 45.9672 114.928 45.4474 114.928H45.0654V114.407C45.8819 114.407 46.6793 114.476 47.4931 114.476C48.2038 114.476 48.9179 114.407 49.626 114.407V114.928H49.3681C48.6376 114.928 47.8225 115.066 47.8225 117.132V125.03C47.8225 125.639 47.8396 126.246 47.9249 126.785H47.266L38.3384 116.819V123.972C38.3384 125.484 38.6318 126.002 39.9667 126.002H40.262V126.524C39.5165 126.524 38.7716 126.456 38.026 126.456C37.2477 126.456 36.449 126.524 35.668 126.524V126.002H35.9115C37.1072 126.002 37.4715 125.186 37.4715 123.801V116.488C37.4715 115.516 36.6714 114.928 35.8944 114.928H35.668V114.407C36.3256 114.407 37.0029 114.476 37.6605 114.476C38.1822 114.476 38.6849 114.407 39.2047 114.407L46.9221 123.102" fill="#1A1919"/>
<path fill-rule="evenodd" clip-rule="evenodd" d="M47.9253 126.857L47.2112 126.832L38.4123 117.014V123.971C38.4333 125.481 38.6623 125.91 39.9677 125.926H40.3392V126.597H40.2624C39.5122 126.597 38.766 126.528 38.0264 126.528C37.25 126.528 36.4533 126.597 35.6677 126.597H35.5916V125.926H35.9118C37.0577 125.92 37.3852 125.182 37.3977 123.8V116.489C37.3944 115.565 36.637 115.002 35.8954 115.002H35.5916V114.33H35.6677C36.3305 114.33 37.0091 114.398 37.6595 114.398C38.1767 114.398 38.6774 114.33 39.2622 114.357L46.8818 122.944V116.56C46.8732 115.181 45.9531 115.014 45.4484 115.002H44.9897V114.33H45.0665C45.8855 114.33 46.6836 114.398 47.4934 114.398C48.1989 114.398 48.9097 114.33 49.6264 114.33H49.7025V115.002H49.3685C48.6524 115.021 47.918 115.084 47.897 117.131V125.029C47.897 125.637 47.9161 126.243 47.9994 126.77L48.0152 126.857H47.9253V126.857ZM47.267 126.706H47.8406C47.7631 126.183 47.7494 125.607 47.7494 125.029V117.131C47.7494 115.048 48.6216 114.851 49.3684 114.85H49.5509V114.481C48.8677 114.486 48.1832 114.549 47.4934 114.549C46.6993 114.549 45.9275 114.486 45.1439 114.481L45.1419 114.85H45.4484C45.9813 114.851 47.032 115.088 47.032 116.56L47.0091 123.122L46.9749 123.155L46.9159 123.211L39.2051 114.481C38.6899 114.481 38.1885 114.549 37.6595 114.549C37.0242 114.549 36.3732 114.486 35.7445 114.481L35.7412 114.85H35.8954C36.7086 114.851 37.5453 115.473 37.5453 116.489V123.8C37.5453 125.189 37.1588 126.076 35.9118 126.081L35.7445 126.076V126.449C36.4953 126.443 37.269 126.379 38.0264 126.379C38.7496 126.379 39.4715 126.443 40.1869 126.449V126.081H39.9677C38.6033 126.076 38.2653 125.481 38.264 123.971V116.623L47.267 126.706V126.706ZM46.9231 123.102L46.9776 123.052L46.9231 123.102V123.102ZM46.8818 123.067V123.061L46.868 123.05L46.8818 123.067V123.067Z" fill="#1A1919"/>
<path fill-rule="evenodd" clip-rule="evenodd" d="M52.2222 115.275C50.9202 115.275 50.8696 115.589 50.6097 116.854H50.0893C50.1575 116.368 50.2435 115.882 50.2973 115.379C50.3669 114.891 50.4017 114.407 50.4017 113.905H50.8171C50.9569 114.426 51.3901 114.407 51.8606 114.407H60.8033C61.2738 114.407 61.7063 114.389 61.7418 113.868L62.1559 113.939C62.089 114.407 62.0181 114.876 61.9675 115.346C61.9334 115.814 61.9334 116.281 61.9334 116.75L61.4123 116.943C61.3769 116.302 61.2909 115.275 60.1293 115.275H57.2855V124.51C57.2855 125.849 57.8933 126.002 58.7241 126.002H59.0549V126.524C58.3783 126.524 57.1641 126.457 56.2296 126.457C55.188 126.457 53.9732 126.524 53.2966 126.524V126.002H53.6274C54.5829 126.002 55.066 125.917 55.066 124.546V115.275H52.2222" fill="#1A1919"/>
<path fill-rule="evenodd" clip-rule="evenodd" d="M59.0566 126.597C58.3734 126.597 57.1606 126.528 56.23 126.528C55.1897 126.528 53.9769 126.597 53.297 126.597H53.2228V125.926H53.6278C54.5833 125.904 54.9673 125.892 54.9889 124.545V115.348H52.2226V115.196H55.1392V124.545C55.1392 125.939 54.5781 126.08 53.6278 126.081H53.3711V126.447C54.055 126.443 55.2232 126.379 56.23 126.379C57.1324 126.379 58.2907 126.443 58.9779 126.447V126.081H58.7245C57.8858 126.08 57.2111 125.873 57.2111 124.509V115.196H60.1297C61.2926 115.201 61.4468 116.191 61.4829 116.836L61.8583 116.698C61.8583 116.244 61.8603 115.79 61.8911 115.334C61.9423 114.886 62.0053 114.445 62.0703 114L61.8071 113.956C61.7264 114.461 61.2375 114.488 60.803 114.482H51.7704C51.3622 114.482 50.9179 114.462 50.7617 113.978H50.4756C50.473 114.458 50.4401 114.924 50.3745 115.386C50.3227 115.863 50.2433 116.321 50.1803 116.781H50.5504C50.7781 115.57 50.9265 115.179 52.2226 115.196V115.348C50.9383 115.374 50.9665 115.589 50.6836 116.871L50.6712 116.93H50.0031L50.0122 116.84C50.0831 116.356 50.1711 115.869 50.2216 115.365C50.2938 114.883 50.3266 114.401 50.3266 113.904V113.827H50.8772L50.8904 113.882C51.0072 114.319 51.3281 114.322 51.7704 114.33H60.803C61.286 114.322 61.6378 114.316 61.6673 113.862L61.6733 113.78L61.752 113.796L62.2423 113.873L62.2298 113.95C62.1609 114.416 62.0933 114.883 62.0408 115.348C62.0086 115.813 62.0086 116.28 62.0086 116.749V116.802L61.9581 116.822L61.3445 117.047L61.3405 116.946C61.2926 116.293 61.2257 115.348 60.1297 115.348H57.3621V124.509C57.3791 125.818 57.8976 125.91 58.7245 125.926H59.1301V126.597H59.0566" fill="#1A1919"/>
<path fill-rule="evenodd" clip-rule="evenodd" d="M62.7101 126.002H62.9542C63.5764 126.002 64.2373 125.917 64.2373 125.013V115.919C64.2373 115.014 63.5764 114.928 62.9542 114.928H62.7101V114.407C63.7641 114.407 65.5715 114.476 67.0252 114.476C68.4841 114.476 70.285 114.407 71.4637 114.407C71.4335 115.153 71.4499 116.302 71.5011 117.064L70.9787 117.202C70.8954 116.073 70.6873 115.173 68.8661 115.173H66.4588V119.718H68.5183C69.5585 119.718 69.7849 119.13 69.888 118.191H70.4077C70.373 118.869 70.3546 119.546 70.3546 120.222C70.3546 120.883 70.373 121.542 70.4077 122.201L69.888 122.305C69.7849 121.264 69.7331 120.588 68.5353 120.588H66.4588V124.63C66.4588 125.76 67.4603 125.76 68.5708 125.76C70.6519 125.76 71.57 125.62 72.0905 123.644L72.5742 123.763C72.3491 124.685 72.1423 125.602 71.9868 126.524C70.8757 126.524 68.8819 126.457 67.3245 126.457C65.7605 126.457 63.6991 126.524 62.7101 126.524V126.002" fill="#1A1919"/>
<path fill-rule="evenodd" clip-rule="evenodd" d="M71.9851 126.597C70.8727 126.597 68.8776 126.525 67.3222 126.525C65.7602 126.525 63.6994 126.597 62.7091 126.597H62.6362V125.926H62.9532C63.5806 125.916 64.1516 125.861 64.1595 125.012V115.918C64.1516 115.07 63.5806 115.014 62.9532 115.002H62.6362V114.33H62.7091C63.7683 114.33 65.5718 114.398 67.0249 114.398C68.4825 114.398 70.2827 114.33 71.4634 114.33H71.5402L71.5375 114.41C71.5264 114.67 71.5192 114.979 71.5192 115.305C71.5192 115.905 71.5375 116.563 71.5717 117.057L71.5749 117.119L71.5165 117.137L70.9068 117.296L70.9042 117.207C70.8018 116.081 70.6509 115.261 68.8658 115.244H66.5287L66.5274 119.641H68.5173C69.5168 119.63 69.6953 119.119 69.8134 118.183L69.8174 118.113H70.4842L70.4829 118.193C70.4494 118.871 70.4291 119.545 70.4291 120.222C70.4291 120.878 70.4494 121.537 70.4829 122.197L70.4842 122.26L70.4212 122.274L69.8174 122.395L69.8134 122.313C69.6933 121.253 69.6855 120.672 68.535 120.66H66.5287V124.629C66.5313 125.684 67.4396 125.679 68.5698 125.684C70.6574 125.672 71.4936 125.569 72.016 123.623L72.0337 123.552L72.1065 123.564L72.6624 123.709L72.6467 123.78C72.4216 124.699 72.2148 125.617 72.058 126.535L72.0448 126.597H71.9851V126.597ZM71.9208 126.447C72.0724 125.569 72.2699 124.693 72.4826 123.819L72.1413 123.733C71.6222 125.675 70.6161 125.848 68.5698 125.835C67.477 125.835 66.385 125.835 66.3791 124.629V120.511H68.535C69.7458 120.499 69.8679 121.23 69.9545 122.217L70.3286 122.14C70.2952 121.5 70.2781 120.858 70.2781 120.222C70.2781 119.57 70.2952 118.919 70.3286 118.264H69.9545C69.8567 119.171 69.5739 119.804 68.5173 119.792H66.3791V115.094H68.8657C70.6686 115.079 70.9672 116.014 71.046 117.106L71.4194 117.004C71.3892 116.514 71.3688 115.885 71.3688 115.305C71.3688 115.008 71.3767 114.726 71.3866 114.481C70.2085 114.486 68.4503 114.549 67.0248 114.549C65.6 114.549 63.8464 114.486 62.7852 114.481V114.85H62.9532C63.5701 114.851 64.3078 114.958 64.3117 115.918V125.012C64.3078 125.97 63.5701 126.076 62.9532 126.081H62.7852V126.447C63.7946 126.444 65.7989 126.379 67.3221 126.379C68.8526 126.379 70.8031 126.444 71.9208 126.447V126.447Z" fill="#1A1919"/>
<path fill-rule="evenodd" clip-rule="evenodd" d="M74.9159 116.245C74.9159 114.98 74.2215 114.928 73.6834 114.928H73.3703V114.407C73.9255 114.407 75.0005 114.476 76.0591 114.476C77.0974 114.476 77.9309 114.407 78.8497 114.407C81.0312 114.407 82.9771 114.996 82.9771 117.463C82.9771 119.024 81.9362 119.977 80.5672 120.519L83.5304 124.96C84.0173 125.694 84.3612 125.9 85.2131 126.002V126.524C84.6395 126.524 84.0849 126.457 83.5146 126.457C82.9771 126.457 82.4199 126.524 81.885 126.524C80.5488 124.771 79.4036 122.897 78.2774 120.898H77.1348V124.615C77.1348 125.951 77.7576 126.002 78.5524 126.002H78.8668V126.524C77.8764 126.524 76.8749 126.457 75.8846 126.457C75.0524 126.457 74.2373 126.524 73.3703 126.524V126.002H73.6834C74.3272 126.002 74.9159 125.708 74.9159 125.067V116.245V116.245ZM77.1348 120.272H77.9821C79.718 120.272 80.6525 119.614 80.6525 117.564C80.6525 116.021 79.6642 115.031 78.1193 115.031C77.5988 115.031 77.377 115.085 77.1348 115.102V120.272V120.272Z" fill="#1A1919"/>
<path fill-rule="evenodd" clip-rule="evenodd" d="M85.2147 126.597C84.6332 126.597 84.082 126.527 83.5116 126.527C82.9833 126.527 82.4288 126.597 81.825 126.568C80.4947 124.82 79.3547 122.957 78.235 120.975H77.2106V124.611C77.2296 125.918 77.7527 125.908 78.554 125.926H78.9432V126.597H78.8664C77.8754 126.597 76.868 126.527 75.8855 126.527C75.0573 126.527 74.2428 126.597 73.3719 126.597H73.2964V125.926H73.685C74.3085 125.922 74.8355 125.65 74.8381 125.066V116.244C74.825 115.014 74.2231 115.02 73.685 115.002H73.2964V114.33H73.3719C73.9331 114.33 75.0035 114.398 76.0608 114.398C77.0957 114.398 77.9272 114.33 78.8513 114.33C81.0374 114.335 83.049 114.937 83.0542 117.459C83.0542 119.026 82.0199 120.005 80.683 120.551L83.5943 124.918C84.0793 125.638 84.3812 125.818 85.2246 125.926L85.2876 125.936V126.597H85.2147V126.597ZM77.1358 120.822H78.3204L78.342 120.861C79.4708 122.855 80.6102 124.73 81.8867 126.449C82.4143 126.449 82.9715 126.379 83.5116 126.379C84.0649 126.379 84.6004 126.439 85.1386 126.447V126.066C84.3261 125.967 83.9441 125.721 83.4709 125.002L80.4527 120.483L80.538 120.448C81.8958 119.913 82.9019 118.986 82.9026 117.459C82.9019 115.051 81.0309 114.493 78.8513 114.481C77.9384 114.481 77.1049 114.551 76.0607 114.551C75.0422 114.551 74.0131 114.486 73.4461 114.481V114.85H73.685C74.2231 114.851 74.989 114.941 74.989 116.244V125.066C74.989 125.763 74.3373 126.079 73.685 126.081H73.4461V126.447C74.2796 126.444 75.0711 126.379 75.8855 126.379C76.8535 126.379 77.8327 126.444 78.7916 126.447V126.081H78.554C77.7645 126.079 77.059 125.981 77.059 124.611V120.822H77.1358V120.822ZM77.1358 120.346H77.059V115.031L77.1253 115.025C77.3628 115.006 77.5965 114.958 78.1209 114.958C79.6999 114.958 80.7283 115.985 80.7296 117.568C80.725 119.641 79.7327 120.345 77.9837 120.346H77.1358V120.346ZM77.9837 120.198C79.6999 120.181 80.5649 119.585 80.582 117.568C80.5715 116.052 79.631 115.111 78.1209 115.104C77.6529 115.104 77.4317 115.148 77.2106 115.169V120.198H77.9837V120.198Z" fill="#1A1919"/>
<path fill-rule="evenodd" clip-rule="evenodd" d="M96.9854 123.102L97.0155 123.068V116.56C97.0155 115.136 96.0304 114.928 95.51 114.928H95.13V114.407C95.9451 114.407 96.7399 114.476 97.557 114.476C98.2697 114.476 98.9752 114.407 99.6912 114.407V114.928H99.43C98.7016 114.928 97.8871 115.066 97.8871 117.132V125.03C97.8871 125.639 97.9042 126.246 97.9895 126.785H97.3332L88.405 116.819V123.972C88.405 125.484 88.6977 126.002 90.0326 126.002H90.3279V126.524C89.583 126.524 88.8362 126.456 88.0913 126.456C87.3083 126.456 86.5122 126.524 85.7325 126.524V126.002H85.9734C87.1705 126.002 87.5367 125.186 87.5367 123.801V116.488C87.5367 115.516 86.738 114.928 85.9583 114.928H85.7325V114.407C86.3888 114.407 87.0701 114.476 87.7277 114.476C88.2429 114.476 88.7482 114.407 89.2693 114.407L96.9854 123.102" fill="#1A1919"/>
<path fill-rule="evenodd" clip-rule="evenodd" d="M97.9881 126.857L97.276 126.832L88.4757 117.015V123.971C88.4961 125.483 88.7245 125.91 90.0318 125.926H90.3993V126.597H90.3239C89.5744 126.597 88.8301 126.525 88.0872 126.525C87.3135 126.525 86.5121 126.597 85.7311 126.597H85.6537V125.926H85.9726C87.1179 125.922 87.446 125.182 87.4572 123.796V116.487C87.4552 115.562 86.6992 115.002 85.9576 115.002H85.6537V114.33H85.7311C86.3933 114.33 87.0719 114.398 87.7263 114.398C88.2355 114.398 88.7376 114.33 89.3191 114.353L96.9413 122.944V116.56C96.9367 115.181 96.0133 115.01 95.5092 115.002H95.0518V114.33H95.1273C95.9463 114.33 96.7457 114.398 97.5562 114.398C98.2624 114.398 98.9725 114.33 99.6872 114.33H99.764V115.002H99.4293C98.7139 115.02 97.9769 115.084 97.9598 117.131V125.029C97.9598 125.637 97.9749 126.239 98.0635 126.771L98.0721 126.857H97.9881V126.857ZM97.3318 126.706H97.9001C97.824 126.186 97.8089 125.607 97.8089 125.029V117.131C97.8102 115.048 98.687 114.855 99.4293 114.85H99.6117V114.481C98.9292 114.486 98.244 114.549 97.5562 114.549C96.7595 114.549 95.987 114.486 95.2027 114.481V114.85H95.5092C96.0435 114.855 97.0935 115.088 97.0935 116.56L97.0686 123.122L97.0371 123.155L96.9826 123.213L89.2685 114.481C88.7527 114.481 88.25 114.549 87.7263 114.549C87.0831 114.549 86.4353 114.486 85.8053 114.481V114.85H85.9575C86.7733 114.855 87.6075 115.47 87.6075 116.487V123.796C87.6075 125.189 87.2157 126.076 85.9726 126.081L85.8053 126.079V126.448C86.5541 126.443 87.3266 126.379 88.0872 126.379C88.8144 126.379 89.535 126.443 90.2517 126.448V126.081H90.0318C88.6674 126.079 88.3274 125.483 88.3235 123.971V116.626L97.3318 126.706V126.706ZM96.9826 123.102L97.0391 123.052L96.9826 123.102V123.102ZM96.9413 123.067V123.063L96.9288 123.05L96.9413 123.067V123.067Z" fill="#1A1919"/>
<path fill-rule="evenodd" clip-rule="evenodd" d="M102.479 124.041C102.304 124.629 102.095 125.085 102.095 125.393C102.095 125.916 102.826 126.002 103.396 126.002H103.589V126.523C102.893 126.485 102.186 126.456 101.488 126.456C100.864 126.456 100.243 126.485 99.6169 126.523V126.002H99.7226C100.397 126.002 100.972 125.602 101.229 124.872L104.003 116.907C104.229 116.263 104.542 115.396 104.647 114.752C105.199 114.562 105.895 114.217 106.223 114.006C106.277 113.988 106.309 113.971 106.362 113.971C106.414 113.971 106.446 113.971 106.484 114.025C106.536 114.162 106.586 114.319 106.64 114.458L109.831 123.538C110.04 124.143 110.246 124.785 110.467 125.309C110.679 125.796 111.043 126.002 111.617 126.002H111.721V126.523C110.94 126.485 110.158 126.456 109.329 126.456C108.48 126.456 107.61 126.485 106.726 126.523V126.002H106.917C107.313 126.002 107.994 125.933 107.994 125.498C107.994 125.274 107.837 124.805 107.643 124.247L106.968 122.235H103.033L102.479 124.041V124.041ZM105.01 116.351H104.974L103.363 121.263H106.603L105.01 116.351V116.351Z" fill="#1A1919"/>
<path fill-rule="evenodd" clip-rule="evenodd" d="M111.717 126.598C110.938 126.564 110.156 126.525 109.33 126.525C108.48 126.525 107.615 126.564 106.731 126.598L106.651 126.602V125.924H106.918C107.319 125.924 107.915 125.834 107.917 125.499C107.921 125.301 107.765 124.826 107.574 124.274L106.914 122.31H103.09L102.55 124.064C102.376 124.654 102.165 125.113 102.168 125.395C102.174 125.819 102.821 125.924 103.397 125.924H103.663V126.602L103.584 126.598C102.891 126.564 102.184 126.525 101.49 126.525C100.871 126.525 100.245 126.564 99.6238 126.598L99.543 126.602V125.924H99.7229C100.367 125.922 100.905 125.554 101.156 124.849L103.933 116.881C104.157 116.238 104.472 115.375 104.621 114.681C105.165 114.496 105.863 114.146 106.196 113.937C106.244 113.919 106.292 113.897 106.362 113.897C106.405 113.894 106.498 113.906 106.554 113.996C106.603 114.139 106.659 114.295 106.711 114.435L109.903 123.513C110.107 124.121 110.315 124.762 110.542 125.277C110.743 125.74 111.061 125.922 111.618 125.924H111.793V126.602L111.717 126.598V126.598ZM106.802 126.443C107.66 126.413 108.502 126.38 109.33 126.38C110.134 126.38 110.89 126.413 111.644 126.443V126.08H111.618C111.024 126.084 110.615 125.85 110.402 125.338C110.176 124.814 109.966 124.169 109.761 123.561L106.569 114.482C106.516 114.343 106.467 114.188 106.422 114.065C106.405 114.048 106.409 114.048 106.395 114.048H106.362C106.327 114.048 106.306 114.058 106.261 114.069C105.928 114.286 105.233 114.628 104.717 114.764C104.612 115.421 104.299 116.289 104.074 116.932L101.3 124.898C101.036 125.652 100.426 126.081 99.7229 126.08H99.694V126.443C100.289 126.413 100.888 126.38 101.49 126.38C102.161 126.38 102.845 126.413 103.508 126.443V126.08H103.397C102.83 126.072 102.042 126.01 102.022 125.395C102.023 125.051 102.236 124.607 102.406 124.02L102.479 124.042L102.406 124.018L102.977 122.163H107.02L107.714 124.224C107.909 124.783 108.066 125.245 108.066 125.499C108.041 126.031 107.311 126.07 106.918 126.08H106.802V126.443V126.443ZM103.258 121.339L104.918 116.274H105.011V116.351L104.993 116.356L105.011 116.351V116.274H105.063L106.711 121.339H103.258V121.339ZM103.466 121.187H106.501L104.992 116.536L103.466 121.187V121.187ZM104.936 116.374L104.976 116.361L104.936 116.374V116.374Z" fill="#1A1919"/>
<path fill-rule="evenodd" clip-rule="evenodd" d="M112.481 115.275C111.181 115.275 111.128 115.589 110.867 116.854H110.346C110.414 116.368 110.503 115.882 110.557 115.379C110.624 114.891 110.658 114.407 110.658 113.905H111.077C111.213 114.426 111.647 114.407 112.115 114.407H121.063C121.529 114.407 121.962 114.389 121.997 113.868L122.411 113.939C122.347 114.407 122.278 114.876 122.224 115.346C122.186 115.814 122.186 116.281 122.186 116.75L121.668 116.943C121.637 116.302 121.55 115.275 120.385 115.275H117.542V124.51C117.542 125.849 118.15 126.002 118.981 126.002H119.312V126.524C118.635 126.524 117.424 126.457 116.485 126.457C115.447 126.457 114.23 126.524 113.554 126.524V126.002H113.884C114.84 126.002 115.323 125.917 115.323 124.546V115.275H112.481" fill="#1A1919"/>
<path fill-rule="evenodd" clip-rule="evenodd" d="M119.313 126.597C118.632 126.597 117.417 126.528 116.485 126.528C115.449 126.528 114.235 126.597 113.556 126.597H113.479V125.926H113.885C114.841 125.904 115.225 125.892 115.248 124.545L115.246 115.348H112.482V115.196H115.399V124.545C115.399 125.939 114.838 126.076 113.885 126.08H113.63V126.449C114.315 126.443 115.48 126.379 116.485 126.379C117.391 126.379 118.551 126.443 119.236 126.449V126.08H118.981C118.146 126.076 117.471 125.875 117.469 124.509V115.196H120.386C121.551 115.201 121.703 116.191 121.736 116.836L122.113 116.698C122.113 116.244 122.116 115.79 122.151 115.336C122.198 114.889 122.263 114.445 122.326 114.002L122.065 113.956C121.985 114.461 121.496 114.489 121.064 114.482H112.028C111.619 114.486 111.177 114.462 111.019 113.977H110.736C110.732 114.457 110.698 114.924 110.629 115.386C110.582 115.865 110.499 116.325 110.432 116.781H110.805C111.033 115.57 111.183 115.177 112.482 115.196V115.348C111.196 115.371 111.225 115.589 110.942 116.871L110.929 116.93H110.26L110.27 116.844C110.343 116.356 110.429 115.869 110.479 115.369C110.55 114.883 110.582 114.401 110.582 113.904V113.827H111.133L111.147 113.882C111.269 114.319 111.584 114.322 112.028 114.33H121.064C121.544 114.322 121.894 114.316 121.925 113.863L121.927 113.78L122.008 113.796L122.5 113.873L122.489 113.95C122.417 114.416 122.351 114.883 122.299 115.348C122.263 115.813 122.263 116.281 122.263 116.749V116.802L122.213 116.822L121.599 117.047L121.597 116.946C121.551 116.293 121.483 115.348 120.386 115.348H117.618V124.509C117.636 125.818 118.155 125.91 118.981 125.926H119.386V126.597H119.313" fill="#1A1919"/>
<path fill-rule="evenodd" clip-rule="evenodd" d="M123.056 126.002H123.298C123.923 126.002 124.58 125.917 124.58 125.013V115.919C124.58 115.014 123.923 114.928 123.298 114.928H123.056V114.407C123.732 114.407 124.77 114.476 125.619 114.476C126.488 114.476 127.529 114.407 128.345 114.407V114.928H128.102C127.475 114.928 126.816 115.014 126.816 115.919V125.013C126.816 125.917 127.475 126.002 128.102 126.002H128.345V126.524C127.512 126.524 126.471 126.457 125.605 126.457C124.754 126.457 123.732 126.524 123.056 126.524V126.002" fill="#1A1919"/>
<path fill-rule="evenodd" clip-rule="evenodd" d="M128.346 126.597C127.507 126.597 126.471 126.525 125.606 126.525C124.757 126.525 123.733 126.597 123.056 126.597H122.982V125.926H123.299C123.924 125.916 124.5 125.861 124.504 125.012V115.918C124.5 115.07 123.924 115.014 123.299 115.002H122.982V114.33H123.056C123.733 114.33 124.776 114.398 125.619 114.398C126.484 114.398 127.524 114.33 128.346 114.33H128.418V115.002H128.103C127.468 115.014 126.898 115.07 126.892 115.918V125.012C126.898 125.861 127.468 125.916 128.103 125.926H128.418V126.597H128.346V126.597ZM128.267 126.447V126.079H128.103C127.481 126.079 126.745 125.97 126.745 125.012V115.918C126.745 114.958 127.481 114.851 128.103 114.85H128.267V114.481C127.467 114.486 126.463 114.549 125.619 114.549C124.796 114.549 123.804 114.486 123.131 114.481V114.85H123.299C123.915 114.851 124.654 114.958 124.656 115.918V125.012C124.654 125.97 123.915 126.079 123.299 126.079H123.131V126.447C123.799 126.439 124.78 126.379 125.606 126.379C126.446 126.379 127.449 126.443 128.267 126.447V126.447Z" fill="#1A1919"/>
<path fill-rule="evenodd" clip-rule="evenodd" d="M135.259 114.146C138.955 114.146 141.901 116.439 141.901 120.137C141.901 124.13 139.04 126.784 135.348 126.784C131.671 126.784 128.864 124.284 128.864 120.551C128.864 116.942 131.654 114.146 135.259 114.146M135.521 126.02C138.886 126.02 139.472 123.049 139.472 120.518C139.472 117.981 138.106 114.91 135.226 114.91C132.193 114.91 131.29 117.618 131.29 119.942C131.29 123.049 132.713 126.02 135.521 126.02" fill="#1A1919"/>
<path fill-rule="evenodd" clip-rule="evenodd" d="M128.785 120.551C128.792 116.9 131.615 114.076 135.257 114.07V114.222C131.693 114.222 128.936 116.981 128.932 120.551C128.939 124.242 131.706 126.705 135.348 126.706C139.002 126.705 141.822 124.089 141.827 120.135C141.823 116.483 138.924 114.225 135.257 114.222V114.07C138.98 114.074 141.968 116.391 141.974 120.135C141.97 124.169 139.075 126.85 135.348 126.857C131.639 126.85 128.792 124.325 128.785 120.551M131.213 119.943C131.218 117.607 132.129 114.833 135.224 114.833C138.168 114.839 139.541 117.967 139.547 120.518C139.541 123.049 138.947 126.091 135.52 126.091V125.944C138.817 125.941 139.39 123.049 139.395 120.518C139.395 118.004 138.042 114.99 135.224 114.986C132.25 114.989 131.371 117.63 131.363 119.943C131.365 123.035 132.774 125.939 135.52 125.944V126.091C132.642 126.088 131.218 123.068 131.213 119.943" fill="#1A1919"/>
<path fill-rule="evenodd" clip-rule="evenodd" d="M153.584 123.102L153.621 123.068V116.56C153.621 115.136 152.629 114.928 152.109 114.928H151.732V114.407C152.544 114.407 153.344 114.476 154.156 114.476C154.869 114.476 155.58 114.407 156.291 114.407V114.928H156.03C155.304 114.928 154.486 115.066 154.486 117.132V125.03C154.486 125.639 154.504 126.246 154.592 126.785H153.932L145.001 116.819V123.972C145.001 125.484 145.297 126.002 146.63 126.002H146.927V126.524C146.181 126.524 145.437 126.456 144.691 126.456C143.91 126.456 143.112 126.524 142.332 126.524V126.002H142.575C143.774 126.002 144.135 125.186 144.135 123.801V116.488C144.135 115.516 143.34 114.928 142.556 114.928H142.332V114.407C142.991 114.407 143.666 114.476 144.326 114.476C144.845 114.476 145.345 114.407 145.868 114.407L153.584 123.102" fill="#1A1919"/>
<path fill-rule="evenodd" clip-rule="evenodd" d="M154.592 126.857L153.874 126.832L145.075 117.015V123.971C145.096 125.483 145.325 125.908 146.627 125.923H147V126.597H146.927C146.176 126.597 145.432 126.528 144.69 126.528C143.913 126.528 143.115 126.597 142.329 126.597H142.258V125.923H142.573C143.716 125.92 144.046 125.182 144.059 123.8V116.487C144.059 115.562 143.301 115.002 142.556 115.002H142.258V114.33H142.329C142.994 114.33 143.669 114.398 144.324 114.398C144.839 114.398 145.337 114.33 145.925 114.357L153.543 122.944V116.56C153.538 115.181 152.614 115.014 152.108 115.002H151.651V114.33H151.731C152.545 114.33 153.345 114.398 154.153 114.398C154.863 114.398 155.57 114.33 156.291 114.33H156.364V115.002H156.029C155.314 115.021 154.576 115.087 154.562 117.131V125.029C154.562 125.637 154.576 126.243 154.66 126.771L154.675 126.857H154.592V126.857ZM153.931 126.706H154.5C154.426 126.183 154.409 125.607 154.409 125.029V117.131C154.409 115.044 155.285 114.855 156.029 114.85H156.217V114.481C155.528 114.486 154.846 114.549 154.153 114.549C153.364 114.549 152.589 114.486 151.804 114.481V114.85H152.108C152.644 114.855 153.69 115.092 153.69 116.56L153.672 123.122L153.639 123.155L153.583 123.213L145.867 114.481C145.354 114.481 144.85 114.549 144.324 114.549C143.685 114.549 143.034 114.486 142.404 114.481V114.85H142.556C143.371 114.855 144.208 115.47 144.208 116.487V123.8C144.208 125.189 143.821 126.076 142.573 126.081L142.404 126.079V126.448C143.156 126.443 143.928 126.379 144.69 126.379C145.413 126.379 146.132 126.443 146.851 126.448V126.081H146.627C145.266 126.079 144.925 125.483 144.925 123.971V116.623L153.931 126.706V126.706ZM153.583 123.102L153.639 123.052L153.583 123.102V123.102ZM153.543 123.067V123.063L153.53 123.05L153.543 123.067V123.067Z" fill="#1A1919"/>
<path fill-rule="evenodd" clip-rule="evenodd" d="M159.075 124.041C158.905 124.629 158.695 125.085 158.695 125.393C158.695 125.916 159.426 126.002 159.994 126.002H160.188V126.523C159.493 126.485 158.782 126.456 158.088 126.456C157.463 126.456 156.84 126.485 156.219 126.523V126.002H156.317C156.997 126.002 157.571 125.602 157.824 124.872L160.605 116.907C160.828 116.263 161.142 115.396 161.242 114.752C161.799 114.562 162.491 114.217 162.825 114.006C162.873 113.988 162.908 113.971 162.962 113.971C163.012 113.971 163.045 113.971 163.081 114.025C163.133 114.162 163.185 114.319 163.238 114.458L166.428 123.538C166.635 124.143 166.844 124.785 167.07 125.309C167.278 125.796 167.642 126.002 168.214 126.002H168.321V126.523C167.539 126.485 166.758 126.456 165.925 126.456C165.077 126.456 164.209 126.485 163.324 126.523V126.002H163.516C163.912 126.002 164.592 125.933 164.592 125.498C164.592 125.274 164.437 124.805 164.243 124.247L163.567 122.235H159.632L159.075 124.041V124.041ZM161.61 116.351H161.575L159.959 121.263H163.206L161.61 116.351V116.351Z" fill="#1A1919"/>
<path fill-rule="evenodd" clip-rule="evenodd" d="M168.314 126.598C167.533 126.567 166.754 126.528 165.927 126.528C165.081 126.528 164.212 126.567 163.329 126.598L163.252 126.602V125.927H163.516C163.919 125.927 164.516 125.834 164.517 125.499C164.522 125.302 164.365 124.828 164.17 124.274L163.512 122.31H159.685L159.149 124.064C158.975 124.659 158.77 125.113 158.772 125.394C158.772 125.819 159.422 125.927 159.995 125.927H160.26V126.602L160.182 126.598C159.49 126.567 158.78 126.528 158.089 126.528C157.468 126.528 156.846 126.567 156.22 126.598L156.145 126.602V125.927H156.319C156.965 125.924 157.506 125.553 157.76 124.849L160.533 116.881C160.755 116.238 161.068 115.375 161.22 114.684C161.765 114.495 162.461 114.146 162.799 113.937C162.843 113.92 162.892 113.899 162.963 113.899C163.008 113.895 163.099 113.906 163.152 114C163.204 114.137 163.256 114.295 163.312 114.435L166.5 123.514C166.709 124.121 166.916 124.763 167.141 125.28C167.345 125.74 167.659 125.922 168.213 125.927H168.392V126.602L168.314 126.598V126.598ZM163.399 126.445C164.257 126.413 165.1 126.38 165.927 126.38C166.733 126.38 167.487 126.413 168.244 126.443L168.242 126.08H168.213C167.626 126.081 167.217 125.85 167 125.338C166.772 124.814 166.566 124.169 166.358 123.564L163.168 114.482C163.116 114.343 163.061 114.188 163.021 114.068C163.006 114.048 163.008 114.048 162.997 114.048H162.963C162.926 114.048 162.906 114.06 162.865 114.071C162.526 114.284 161.832 114.632 161.32 114.764C161.213 115.422 160.898 116.288 160.674 116.932L157.898 124.898C157.634 125.652 157.028 126.081 156.319 126.08H156.293V126.443C156.89 126.413 157.486 126.38 158.089 126.38C158.761 126.38 159.446 126.413 160.113 126.443V126.08H159.995C159.431 126.072 158.641 126.012 158.619 125.394C158.624 125.051 158.837 124.608 159.007 124.02L159.076 124.042L159.007 124.018L159.577 122.163H163.619L164.315 124.225C164.506 124.783 164.664 125.246 164.664 125.499C164.639 126.031 163.91 126.07 163.516 126.08H163.399V126.445V126.445ZM159.857 121.339L161.522 116.275H161.612V116.351L161.592 116.357L161.612 116.351V116.275H161.664L163.304 121.339H159.857V121.339ZM160.066 121.188H163.099L161.591 116.539L160.066 121.188V121.188ZM161.539 116.374L161.574 116.361L161.539 116.374V116.374Z" fill="#1A1919"/>
<path fill-rule="evenodd" clip-rule="evenodd" d="M172.687 124.821C172.687 125.519 173.169 125.725 173.725 125.797C174.435 125.849 175.216 125.849 176.016 125.76C176.743 125.673 177.367 125.259 177.678 124.821C177.954 124.44 178.11 123.954 178.216 123.573H178.718C178.527 124.562 178.284 125.535 178.076 126.524C176.554 126.524 175.023 126.457 173.5 126.457C171.973 126.457 170.448 126.524 168.923 126.524V126.002H169.163C169.789 126.002 170.467 125.917 170.467 124.84V115.919C170.467 115.014 169.789 114.928 169.163 114.928H168.923V114.407C169.841 114.407 170.744 114.476 171.661 114.476C172.547 114.476 173.412 114.407 174.299 114.407V114.928H173.863C173.204 114.928 172.687 114.946 172.687 115.866V124.821" fill="#1A1919"/>
<path fill-rule="evenodd" clip-rule="evenodd" d="M178.079 126.597C176.55 126.597 175.023 126.527 173.502 126.527C171.977 126.527 170.451 126.597 168.922 126.597H168.849V125.926H169.166C169.792 125.911 170.388 125.867 170.395 124.839V115.915C170.388 115.07 169.795 115.014 169.166 115.002H168.849V114.33H168.922C169.845 114.33 170.748 114.398 171.662 114.398C172.545 114.398 173.408 114.33 174.301 114.33H174.371V115.002H173.865C173.193 115.02 172.775 114.989 172.76 115.865V124.82C172.765 125.47 173.189 125.643 173.731 125.721C174.037 125.742 174.359 125.753 174.693 125.753C175.117 125.753 175.557 125.733 176.005 125.686C176.712 125.602 177.319 125.193 177.619 124.779C177.887 124.408 178.038 123.932 178.143 123.554L178.157 123.497H178.811L178.796 123.588C178.6 124.581 178.361 125.549 178.151 126.539L178.137 126.597H178.079V126.597ZM178.016 126.447C178.216 125.504 178.443 124.583 178.631 123.646H178.273C178.167 124.024 178.012 124.49 177.74 124.868C177.416 125.317 176.774 125.742 176.022 125.835C175.568 125.881 175.117 125.905 174.693 125.905C174.357 125.905 174.033 125.889 173.717 125.867C173.153 125.805 172.608 125.563 172.608 124.82V115.865C172.608 114.9 173.218 114.85 173.865 114.85H174.222V114.481C173.368 114.486 172.525 114.551 171.662 114.551C170.766 114.551 169.887 114.486 169 114.481V114.85H169.166C169.784 114.85 170.54 114.958 170.54 115.915V124.839C170.54 125.963 169.787 126.079 169.166 126.079H169V126.447C170.498 126.444 171.997 126.379 173.502 126.379C175.01 126.379 176.515 126.444 178.016 126.447V126.447Z" fill="#1A1919"/>
<path fill-rule="evenodd" clip-rule="evenodd" d="M70.2151 53.1228C70.2151 36.8859 83.362 23.7233 99.579 23.7233C115.797 23.7233 128.943 36.8859 128.943 53.1228C128.943 69.3598 115.797 82.5229 99.579 82.5229C83.362 82.5229 70.2151 69.3598 70.2151 53.1228" fill="#FFFFFE"/>
<path fill-rule="evenodd" clip-rule="evenodd" d="M117.338 52.5445C117.326 45.0158 112.626 38.5949 106.003 36.052V69.0358C112.626 66.4896 117.326 60.0746 117.338 52.5445V52.5445ZM93.3676 69.0292V36.0553C86.7502 38.606 82.0571 45.0178 82.0393 52.5445C82.0571 60.0694 86.7502 66.4804 93.3676 69.0292V69.0292ZM99.6884 24.6655C84.3101 24.6714 71.8511 37.148 71.8484 52.5445C71.8511 67.9391 84.3101 80.4137 99.6884 80.4163C115.067 80.4137 127.528 67.9391 127.532 52.5445C127.528 37.148 115.067 24.6714 99.6884 24.6655V24.6655ZM99.6201 83.0472C82.7921 83.1274 68.9417 69.478 68.9417 52.8626C68.9417 34.7037 82.7921 22.1437 99.6201 22.147H107.506C124.135 22.1437 139.312 34.6977 139.312 52.8626C139.312 69.4721 124.135 83.0472 107.506 83.0472H99.6201V83.0472Z" fill="#0069AA"/>
<path fill-rule="evenodd" clip-rule="evenodd" d="M29.722 126.002H29.9655C30.589 126.002 31.2479 125.917 31.2479 125.013V115.919C31.2479 115.014 30.589 114.928 29.9655 114.928H29.722V114.407C30.398 114.407 31.4383 114.476 32.2901 114.476C33.1564 114.476 34.1953 114.407 35.0105 114.407V114.928H34.7657C34.1448 114.928 33.4846 115.014 33.4846 115.919V125.013C33.4846 125.917 34.1448 126.002 34.7657 126.002H35.0105V126.524C34.1789 126.524 33.1361 126.457 32.2724 126.457C31.4212 126.457 30.398 126.524 29.722 126.524V126.002" fill="#1A1919"/>
<path fill-rule="evenodd" clip-rule="evenodd" d="M35.0096 126.597C34.1708 126.597 33.1332 126.527 32.2702 126.527C31.4216 126.527 30.4017 126.597 29.7212 126.597H29.6457V125.926H29.9633C30.5927 125.911 31.165 125.861 31.1703 125.012V115.918C31.165 115.069 30.5927 115.014 29.9633 115.002H29.6457V114.33H29.7212C30.4017 114.33 31.4413 114.398 32.2892 114.398C33.1516 114.398 34.1899 114.33 35.0096 114.33H35.087V115.002H34.7681C34.138 115.014 33.5624 115.069 33.5592 115.918V125.012C33.5624 125.861 34.138 125.911 34.7681 125.926H35.087V126.597H35.0096V126.597ZM34.9348 126.449L34.9354 126.079H34.7681C34.1479 126.079 33.4108 125.97 33.4069 125.012V115.918C33.4108 114.958 34.1479 114.851 34.7681 114.851H34.9348V114.481C34.1347 114.481 33.13 114.551 32.2892 114.551C31.4656 114.551 30.4687 114.486 29.7973 114.481V114.851H29.9633C30.5816 114.851 31.3199 114.958 31.3199 115.918V125.012C31.3199 125.97 30.5816 126.079 29.9633 126.079H29.7973V126.449C30.4687 126.443 31.4479 126.379 32.2702 126.379C33.1149 126.379 34.117 126.444 34.9348 126.449V126.449Z" fill="#1A1919"/>
<path fill-rule="evenodd" clip-rule="evenodd" d="M178.507 113.914C179.553 113.914 180.333 114.718 180.333 115.746C180.333 116.773 179.553 117.569 178.507 117.569C177.463 117.569 176.682 116.773 176.682 115.746C176.682 114.718 177.463 113.914 178.507 113.914V113.914ZM178.507 117.229C179.326 117.229 179.951 116.532 179.951 115.746C179.951 114.959 179.333 114.256 178.507 114.256C177.685 114.256 177.06 114.959 177.06 115.746C177.06 116.532 177.685 117.229 178.507 117.229V117.229ZM177.599 116.71V116.621C177.822 116.589 177.864 116.595 177.864 116.458V115.103C177.864 114.913 177.845 114.847 177.607 114.858V114.764H178.541C178.862 114.764 179.158 114.918 179.158 115.25C179.158 115.522 178.979 115.724 178.726 115.802L179.027 116.221C179.167 116.41 179.326 116.589 179.428 116.652V116.71H179.073C178.903 116.71 178.752 116.351 178.417 115.869H178.215V116.475C178.215 116.595 178.257 116.589 178.481 116.621V116.71H177.599V116.71ZM178.215 115.746H178.43C178.666 115.746 178.775 115.568 178.775 115.279C178.775 114.989 178.607 114.886 178.418 114.886H178.215V115.746V115.746Z" fill="#1A1919"/>
</svg>
