<svg width="213" height="147" viewBox="0 0 213 147" fill="none" xmlns="http://www.w3.org/2000/svg">
<rect x="1.21185" y="0.703384" width="210.864" height="145.287" rx="14.5" fill="white" stroke="#F3F3F3"/>
<path d="M45.3037 55.082C47.2842 54.4326 49.4029 54.0801 51.6074 54.0801C61.2285 54.0801 69.2538 60.7843 71.0949 69.6904L84.7286 66.9633C81.6003 51.8269 67.9618 40.4329 51.6074 40.4329C47.8631 40.4329 44.259 41.0313 40.8946 42.1336L45.3037 55.082Z" fill="#FFF200"/>
<path d="M29.0765 98.9476L37.2398 88.4072C33.5959 84.7216 31.2961 79.3407 31.2961 73.343C31.2961 67.3498 33.5938 61.969 37.2365 58.2861L29.069 47.747C22.8774 54.0088 18.9756 63.1555 18.9756 73.343C18.9756 83.5358 22.8831 92.6858 29.0765 98.9476" fill="#00A4E0"/>
<path d="M71.0991 77.0047C69.2517 85.9093 61.2315 92.6051 51.619 92.6051C49.4135 92.6051 47.2906 92.2516 45.3099 91.6002L40.8946 104.555C44.2642 105.663 47.8695 106.262 51.619 106.262C67.9583 106.262 81.5878 94.876 84.7286 79.7454L71.0991 77.0047Z" fill="#EF4123"/>
<path fill-rule="evenodd" clip-rule="evenodd" d="M150.323 47.747V85.2057L157.045 87.9001L153.865 95.2883L147.217 92.6162C145.723 91.9894 144.711 91.0344 143.943 89.9559C143.205 88.8524 142.658 87.3441 142.658 85.3087V47.747H150.323ZM99.341 75.5874C99.508 64.8753 108.631 56.3245 119.7 56.4885C129.095 56.631 136.88 62.9945 138.924 71.4582L102.587 86.4764C100.476 83.356 99.2764 79.6021 99.341 75.5874ZM107.655 77.0892C107.606 76.6397 107.57 76.1789 107.584 75.7139C107.688 69.4027 113.059 64.3667 119.58 64.4713C123.13 64.5172 126.282 66.0891 128.413 68.522L107.655 77.0892ZM127.648 84.0437C125.458 86.1037 122.488 87.3588 119.209 87.3137C116.962 87.2774 114.879 86.6267 113.108 85.5425L108.719 92.3062C111.725 94.1437 115.27 95.231 119.091 95.2882C124.654 95.3681 129.724 93.2551 133.411 89.766L127.648 84.0437ZM178.3 64.4712C176.99 64.4712 175.732 64.6758 174.556 65.0574L171.941 57.4782C173.937 56.8336 176.075 56.4834 178.3 56.4834C188.009 56.4834 196.108 63.1524 197.965 72.0113L189.868 73.6075C188.777 68.3938 184.012 64.4712 178.3 64.4712ZM165.006 90.4202L170.477 84.4375C168.033 82.3457 166.495 79.2905 166.495 75.8852C166.495 72.4832 168.033 69.4296 170.474 67.3392L164.999 61.3566C160.849 64.9112 158.233 70.1053 158.233 75.8852C158.233 81.6722 160.851 86.8644 165.006 90.4202ZM178.299 87.3033C184.007 87.3033 188.771 83.3841 189.868 78.178L197.963 79.781C196.096 88.6304 187.999 95.2903 178.299 95.2903C176.073 95.2903 173.932 94.939 171.93 94.2914L174.552 86.7148C175.73 87.0953 176.989 87.3033 178.299 87.3033Z" fill="black"/>
</svg>
