<svg width="213" height="147" viewBox="0 0 213 147" fill="none" xmlns="http://www.w3.org/2000/svg">
<rect x="0.923706" y="0.5" width="210.864" height="145.287" rx="14.5" fill="#B32024" stroke="#F3F3F3"/>
<mask id="mask0_396_3392" style="mask-type:alpha" maskUnits="userSpaceOnUse" x="23" y="37" width="168" height="74">
<path d="M23.1235 37.8329H190.513V110.695H23.1235V37.8329Z" fill="white"/>
</mask>
<g mask="url(#mask0_396_3392)">
<path fill-rule="evenodd" clip-rule="evenodd" d="M25.0424 109.135H158.186C169.252 109.135 174.642 106.573 176.215 99.8467C176.816 97.2744 177.341 94.7829 178.3 90.0537C178.564 88.7502 178.696 88.0993 178.828 87.4506C178.839 87.3974 178.839 87.3974 178.85 87.3442C178.607 88.5396 182.74 68.239 183.886 62.6038C185.654 53.9165 187.16 46.5089 188.604 39.3933H69.0751L51.8007 39.3916C44.1941 39.7512 38.9849 42.8058 37.4873 48.0759C37.0135 49.7437 36.6752 51.3232 36.112 54.3063C36.0667 54.5463 36.0667 54.5463 36.0214 54.7868C35.6885 56.5529 35.5255 57.3889 35.3119 58.3854C34.0762 64.152 32.8387 70.1849 31.3266 77.756C30.9292 79.7457 30.5206 81.8021 30.0025 84.4172C29.8356 85.2594 28.941 89.7793 28.6861 91.0651C27.1589 98.771 26.0948 104.063 25.0424 109.135Z" fill="#B32024" stroke="white" stroke-width="1.23741"/>
<path fill-rule="evenodd" clip-rule="evenodd" d="M138.891 81.3304C137.016 83.1662 131.752 83.6877 132.29 79.2994C132.738 75.655 136.706 74.8802 141.007 75.4066C140.687 77.4002 140.32 79.9316 138.891 81.3304ZM132.967 67.1134C132.788 68.1188 132.513 69.0287 132.29 69.9905C134.438 69.4523 141.124 67.8014 141.769 70.6674C141.982 71.6196 141.613 72.6314 141.345 73.3756C135.299 72.8029 130.371 73.8074 129.075 78.1145C128.206 80.9995 129.172 83.8385 131.021 84.6311C134.583 86.1567 138.915 84.409 140.414 82.0076C140.259 82.839 140.111 83.6785 140.16 84.7155H143.292C143.325 81.7168 143.761 79.2895 144.223 76.5912C144.616 74.2934 145.355 72.0185 145.238 69.9905C144.969 65.3459 137.274 66.9892 132.967 67.1134ZM164.364 82.769C161.914 82.8215 160.696 81.3054 160.64 78.7917C160.542 74.3893 162.474 69.4983 166.394 69.0596C168.22 68.8555 169.542 69.2801 170.88 69.7368C169.652 74.6817 170.095 82.6461 164.364 82.769ZM172.487 59.497C172.176 62.2315 171.759 64.8612 171.218 67.367C162.292 64.5418 156.818 71.109 156.916 79.215C156.936 80.7823 157.205 82.3369 158.186 83.4459C159.875 85.3569 164.714 85.8143 167.156 84.2079C167.629 83.897 168.112 83.3312 168.426 82.9385C168.661 82.6428 169.035 81.8693 169.102 82.0917C168.974 82.951 168.782 83.7468 168.764 84.7155H172.064C172.701 75.5913 174.667 67.7978 176.126 59.497H172.487ZM79.3147 81.4152C77.3682 83.4771 72.5816 83.4455 72.2064 79.9763C72.0431 78.4668 72.6053 76.8839 72.8833 75.3222C73.1646 73.7413 73.367 72.2246 73.645 70.8366C75.5626 68.4951 81.1972 68.2125 81.769 72.1063C82.2651 75.4868 80.9271 79.7075 79.3147 81.4152ZM82.1922 67.1134C79.1123 65.9564 75.3585 67.3375 73.7314 68.6512C73.737 68.709 73.6926 68.7169 73.645 68.7211C73.6726 68.6978 73.7025 68.6745 73.7314 68.6512C73.731 68.6462 73.7307 68.642 73.7294 68.6367C73.757 68.0715 73.9558 67.6782 73.9834 67.1134H70.8523C69.5475 75.7943 68.0001 84.2325 66.367 92.5855H70.0058C70.5326 89.3325 70.8805 85.9004 71.6139 82.8537C72.4449 86.0581 77.8713 85.4456 80.1612 84.2079C84.8856 81.6531 88.5297 69.494 82.1922 67.1134ZM99.4556 73.2064H90.9087C91.1791 71.2414 92.9469 69.0816 95.732 68.9751C98.3535 68.8749 100.23 69.9376 99.4556 73.2064ZM95.986 66.7749C93.3566 66.9773 91.1341 67.7341 89.5546 69.3984C87.6175 71.4392 86.0485 75.9517 86.5079 80.0611C87.1637 85.9237 94.4633 85.7134 100.302 84.2923C100.401 83.2635 100.65 82.3839 100.81 81.4152C98.4048 82.3152 94.2284 83.5714 91.7548 82.0076C89.8871 80.8267 89.8762 77.8362 90.4854 75.2374C94.4094 75.1125 98.4879 75.1365 102.418 75.2374C102.667 73.3953 103.38 71.387 102.756 69.5676C101.932 67.1659 98.9854 66.5439 95.986 66.7749ZM63.9976 67.1134C63.899 67.1275 63.9056 67.2471 63.9128 67.367C63.1111 73.3634 62.0261 79.0769 60.8665 84.7155H64.5053C65.3796 78.6787 66.3815 72.7694 67.6364 67.1134H63.9976ZM158.948 67.1978C155.731 65.59 153.054 68.2884 152.008 69.9057C152.306 69.0757 152.323 67.9644 152.601 67.1134H149.385C148.518 73.1574 147.472 79.0234 146.253 84.7155H149.977C150.001 82.3825 150.459 80.6568 150.823 78.3685C151.602 73.4834 152.744 68.1257 158.44 69.7368C158.629 68.9104 158.707 67.9733 158.948 67.1978ZM118.073 80.5687C117.738 79.7022 117.651 78.2712 117.735 77.1836C117.923 74.7383 118.814 71.7612 120.189 70.4137C122.086 68.5536 125.833 68.8615 128.821 69.9057C128.913 68.8986 129.116 68.0006 129.244 67.0289C124.344 66.2285 119.693 66.7263 117.227 69.3136C114.813 71.8464 113.231 77.668 114.35 81.3304C115.659 85.6165 121.529 85.8495 126.282 84.2079C126.493 83.3463 126.604 82.3858 126.79 81.4996C124.193 82.8491 119.227 83.5504 118.073 80.5687ZM116.042 67.1134C112.816 65.8102 110.279 68.0124 109.103 70.0753C109.37 69.1575 109.48 68.0827 109.695 67.1134H106.479C105.694 73.2103 104.535 78.9343 103.433 84.7155H107.072C107.582 81.2837 107.802 76.6582 108.934 73.3756C109.838 70.7525 112.204 68.5178 115.619 69.7368C115.667 68.7691 115.944 68.0305 116.042 67.1134ZM57.3969 60.0047C56.8771 63.3776 56.2915 66.6849 55.7043 69.9905C51.9344 70.0302 48.0854 70.1768 44.4492 69.9057C45.1359 66.6721 45.6285 63.2436 46.311 60.0047H42.249C40.7946 68.2546 39.4721 76.6355 37.8485 84.7155H41.995C42.6456 80.5704 43.2538 76.3832 44.1104 72.4447C47.6464 72.3576 51.8835 72.2058 55.2811 72.5295C54.5809 76.6244 53.7341 80.573 53.0809 84.7155H57.2277C58.5598 76.3441 59.9638 68.0443 61.6281 60.0047H57.3969ZM67.7212 63.7282C68.4467 63.2288 69.3809 60.9523 68.3136 60.0047C67.9755 59.7047 67.4097 59.6176 66.621 59.751C65.8893 59.8746 65.4684 60.123 65.1825 60.5127C64.7225 61.1386 64.3015 63.0267 65.0133 63.7282C65.7062 64.4114 67.2595 64.046 67.7212 63.7282Z" fill="#FEFEFE"/>
</g>
</svg>
