<svg width="212" height="147" viewBox="0 0 212 147" fill="none" xmlns="http://www.w3.org/2000/svg">
<rect x="0.5" y="0.703384" width="210.864" height="145.287" rx="14.5" fill="white" stroke="#F3F3F3"/>
<path fill-rule="evenodd" clip-rule="evenodd" d="M77.6206 113.176V118.578V123.979H75.2562V122.667C74.5062 123.64 73.3683 124.25 71.8215 124.25C68.7722 124.25 66.3817 121.878 66.3817 118.578C66.3817 115.28 68.7722 112.905 71.8215 112.905C73.3683 112.905 74.5062 113.515 75.2562 114.488V113.176H77.6206ZM72.1157 115.119C70.0689 115.119 68.8164 116.679 68.8164 118.578C68.8164 120.476 70.0689 122.036 72.1157 122.036C74.0713 122.036 75.3916 120.544 75.3916 118.578C75.3916 116.612 74.0713 115.119 72.1157 115.119ZM157.522 118.578C157.522 116.679 158.775 115.119 160.822 115.119C162.78 115.119 164.097 116.612 164.097 118.578C164.097 120.544 162.78 122.036 160.822 122.036C158.775 122.036 157.522 120.476 157.522 118.578ZM166.329 108.838V118.578V123.979H163.962V122.667C163.212 123.64 162.074 124.25 160.527 124.25C157.478 124.25 155.088 121.878 155.088 118.578C155.088 115.28 157.478 112.905 160.527 112.905C162.074 112.905 163.212 113.515 163.962 114.488V108.838H166.329ZM106.971 115.008C108.494 115.008 109.473 115.957 109.723 117.628L104.08 117.628C104.333 116.068 105.286 115.008 106.971 115.008ZM101.601 118.578C101.601 115.21 103.83 112.905 107.017 112.905C110.064 112.905 112.158 115.21 112.181 118.578C112.181 118.893 112.158 119.188 112.134 119.48L104.059 119.48C104.4 121.426 105.788 122.127 107.312 122.127C108.403 122.127 109.564 121.718 110.475 120.996L111.634 122.737C110.314 123.844 108.814 124.25 107.176 124.25C103.921 124.25 101.601 122.013 101.601 118.578ZM135.568 118.578C135.568 116.679 136.82 115.119 138.867 115.119C140.823 115.119 142.143 116.612 142.143 118.578C142.143 120.544 140.823 122.036 138.867 122.036C136.82 122.036 135.568 120.476 135.568 118.578ZM144.372 113.176V118.578V123.979H142.008V122.667C141.255 123.64 140.12 124.25 138.573 124.25C135.524 124.25 133.133 121.878 133.133 118.578C133.133 115.28 135.524 112.905 138.573 112.905C140.12 112.905 141.255 113.515 142.008 114.488V113.176H144.372ZM122.214 118.578C122.214 121.855 124.511 124.25 128.016 124.25C129.654 124.25 130.745 123.888 131.927 122.962L130.792 121.064C129.904 121.697 128.972 122.036 127.946 122.036C126.058 122.013 124.67 120.657 124.67 118.578C124.67 116.498 126.058 115.142 127.946 115.119C128.972 115.119 129.904 115.458 130.792 116.092L131.927 114.193C130.745 113.267 129.654 112.905 128.016 112.905C124.511 112.905 122.214 115.3 122.214 118.578ZM149.832 114.488C150.447 113.539 151.335 112.905 152.699 112.905C153.178 112.905 153.861 112.995 154.384 113.2L153.655 115.414C153.155 115.21 152.655 115.142 152.176 115.142C150.629 115.142 149.856 116.136 149.856 117.923V123.979H147.489V113.176H149.832V114.488ZM89.3151 114.035C88.1771 113.29 86.6095 112.905 84.8804 112.905C82.1254 112.905 80.352 114.216 80.352 116.363C80.352 118.125 81.6723 119.211 84.1044 119.55L85.2215 119.708C86.5183 119.889 87.1303 120.228 87.1303 120.838C87.1303 121.674 86.2658 122.15 84.6513 122.15C83.0133 122.15 81.8311 121.63 81.0343 121.02L79.9198 122.848C81.2166 123.798 82.8545 124.25 84.6278 124.25C87.7683 124.25 89.5885 122.781 89.5885 120.725C89.5885 118.826 88.1563 117.833 85.7892 117.494L84.6747 117.333C83.6513 117.199 82.8311 116.997 82.8311 116.273C82.8311 115.481 83.6045 115.008 84.9013 115.008C86.2892 115.008 87.6329 115.528 88.2917 115.934L89.3151 114.035ZM116.96 114.488C117.571 113.539 118.459 112.905 119.824 112.905C120.303 112.905 120.985 112.995 121.509 113.2L120.78 115.414C120.28 115.21 119.78 115.142 119.301 115.142C117.754 115.142 116.98 116.136 116.98 117.923V123.979H114.616V113.176H116.96V114.488ZM99.645 113.176H95.778V109.899H93.3875V113.176H91.1819V115.323H93.3875V120.251C93.3875 122.758 94.3667 124.25 97.1634 124.25C98.1894 124.25 99.3716 123.935 100.122 123.415L99.4393 121.402C98.7336 121.809 97.9602 122.013 97.3456 122.013C96.1634 122.013 95.778 121.289 95.778 120.205V115.323H99.645V113.176ZM64.2905 117.199V123.979H61.9V117.967C61.9 116.136 61.1266 115.119 59.5122 115.119C57.9419 115.119 56.8509 116.115 56.8509 117.99V123.979H54.4604V117.967C54.4604 116.136 53.6661 115.119 52.0959 115.119C50.4788 115.119 49.432 116.115 49.432 117.99V123.979H47.0441V113.176H49.4112V114.509C50.2991 113.244 51.4345 112.905 52.5959 112.905C54.2573 112.905 55.4395 113.629 56.1894 114.827C57.192 113.311 58.6242 112.882 60.0121 112.905C62.6526 112.928 64.2905 114.646 64.2905 117.199Z" fill="#231F20"/>
<path d="M124.368 94.821H88.5313V30.845H124.368V94.821Z" fill="#FF5F00"/>
<path d="M90.8048 62.8343C90.8048 49.8565 96.9216 38.2962 106.447 30.8463C99.4814 25.3985 90.6902 22.147 81.1361 22.147C58.5176 22.147 40.1827 40.363 40.1827 62.8343C40.1827 85.3055 58.5176 103.522 81.1361 103.522C90.6902 103.522 99.4814 100.27 106.447 94.8223C96.9216 87.3724 90.8048 75.8121 90.8048 62.8343" fill="#EB001B"/>
<path d="M172.714 62.8343C172.714 85.3055 154.379 103.522 131.761 103.522C122.207 103.522 113.415 100.27 106.447 94.8223C115.975 87.3724 122.092 75.8121 122.092 62.8343C122.092 49.8565 115.975 38.2962 106.447 30.8463C113.415 25.3985 122.207 22.147 131.761 22.147C154.379 22.147 172.714 40.363 172.714 62.8343" fill="#F79E1B"/>
</svg>
