<svg width="212" height="147" viewBox="0 0 212 147" fill="none" xmlns="http://www.w3.org/2000/svg">
<rect x="0.63562" y="0.5" width="210.864" height="145.287" rx="14.5" fill="white" stroke="#F3F3F3"/>
<path fill-rule="evenodd" clip-rule="evenodd" d="M96.7108 74.0805L97.6331 68.1981L95.5785 68.15H85.7671L92.5857 24.741C92.6069 24.6095 92.6756 24.4875 92.7759 24.4007C92.8766 24.3139 93.0051 24.2663 93.1395 24.2663H109.683C115.176 24.2663 118.966 25.4136 120.944 27.6785C121.872 28.7409 122.463 29.8516 122.749 31.0733C123.049 32.3555 123.054 33.8872 122.761 35.7558L122.74 35.8917V37.0891L123.668 37.6169C124.449 38.0331 125.07 38.5092 125.546 39.0544C126.34 39.9631 126.853 41.1179 127.07 42.4864C127.294 43.8941 127.22 45.5697 126.853 47.4665C126.43 49.6481 125.745 51.5484 124.821 53.1029C123.971 54.5355 122.888 55.7239 121.602 56.6446C120.375 57.5196 118.916 58.1838 117.267 58.6088C115.669 59.0265 113.847 59.2373 111.849 59.2373H110.561C109.641 59.2373 108.747 59.5702 108.045 60.1669C107.341 60.776 106.875 61.6083 106.733 62.5185L106.635 63.0483L105.006 73.4168L104.932 73.7973C104.912 73.9178 104.879 73.9778 104.829 74.0185C104.785 74.0557 104.722 74.0805 104.66 74.0805H96.7108" fill="#28356A"/>
<path fill-rule="evenodd" clip-rule="evenodd" d="M124.547 36.0299C124.498 36.3469 124.441 36.6708 124.378 37.0036C122.196 48.2506 114.732 52.136 105.199 52.136H100.346C99.1797 52.136 98.197 52.9857 98.0157 54.1405L94.8268 74.4504C94.7087 75.2088 95.2907 75.8918 96.0525 75.8918H104.661C105.681 75.8918 106.547 75.1483 106.707 74.1389L106.792 73.6999L108.413 63.3721L108.517 62.8056C108.675 61.7927 109.543 61.0487 110.563 61.0487H111.85C120.191 61.0487 126.72 57.6489 128.629 47.8096C129.426 43.6995 129.013 40.2675 126.904 37.8538C126.265 37.1262 125.473 36.522 124.547 36.0299" fill="#298FC2"/>
<path fill-rule="evenodd" clip-rule="evenodd" d="M122.265 35.1166C121.932 35.0189 121.588 34.9306 121.235 34.8507C120.881 34.7729 120.517 34.7039 120.143 34.6434C118.835 34.4311 117.401 34.3304 115.865 34.3304H102.898C102.578 34.3304 102.275 34.4028 102.004 34.5338C101.406 34.8225 100.961 35.3909 100.854 36.0869L98.095 53.6294L98.016 54.1408C98.1973 52.9861 99.1799 52.1364 100.346 52.1364H105.2C114.732 52.1364 122.197 48.249 124.378 37.004C124.444 36.6712 124.498 36.3473 124.547 36.0303C123.995 35.7362 123.398 35.4847 122.754 35.2704C122.595 35.2173 122.431 35.1662 122.265 35.1166" fill="#22284F"/>
<path fill-rule="evenodd" clip-rule="evenodd" d="M100.854 36.0861C100.962 35.3901 101.406 34.8217 102.004 34.535C102.277 34.4035 102.579 34.3311 102.898 34.3311H115.865C117.401 34.3311 118.835 34.4323 120.144 34.6446C120.518 34.7046 120.881 34.7741 121.236 34.8519C121.588 34.9313 121.932 35.0201 122.266 35.1173C122.431 35.1669 122.595 35.2185 122.756 35.2696C123.399 35.4839 123.998 35.7374 124.549 36.0295C125.199 31.8733 124.544 29.0434 122.306 26.481C119.838 23.6595 115.385 22.4522 109.687 22.4522H93.1427C91.9787 22.4522 90.9857 23.3019 90.8059 24.4586L83.9152 68.3141C83.7794 69.1816 84.4458 69.9644 85.3173 69.9644H95.5308L100.854 36.0861" fill="#28356A"/>
<path fill-rule="evenodd" clip-rule="evenodd" d="M47.9675 86.0206H35.9053C35.0798 86.0206 34.3778 86.6228 34.2488 87.4413L29.3703 118.497C29.2735 119.11 29.7462 119.662 30.3653 119.662H36.1236C36.9492 119.662 37.6512 119.06 37.7801 118.24L39.0957 109.864C39.2227 109.044 39.9262 108.442 40.7502 108.442H44.5686C52.514 108.442 57.0996 104.581 58.2976 96.9313C58.8371 93.5841 58.3203 90.9546 56.7592 89.1129C55.0449 87.0906 52.0042 86.0206 47.9675 86.0206ZM49.3583 97.3633C48.6988 101.709 45.3918 101.709 42.1944 101.709H40.3739L41.651 93.593C41.7271 93.1024 42.15 92.7413 42.644 92.7413H43.4784C45.6566 92.7413 47.7112 92.7413 48.7729 93.9879C49.4063 94.7314 49.5999 95.8366 49.3583 97.3633V97.3633Z" fill="#28356A"/>
<path fill-rule="evenodd" clip-rule="evenodd" d="M84.3331 96.9876H78.5569C78.0649 96.9876 77.6395 97.3487 77.5639 97.8392L77.308 99.4613L76.9044 98.8735C75.654 97.051 72.8652 96.4419 70.0824 96.4419C63.699 96.4419 58.2474 101.296 57.1858 108.105C56.634 111.501 57.4185 114.749 59.3378 117.014C61.098 119.097 63.6165 119.965 66.6128 119.965C71.7561 119.965 74.6077 116.644 74.6077 116.644L74.3503 118.256C74.2535 118.872 74.7262 119.424 75.3418 119.424H80.5444C81.3719 119.424 82.0705 118.822 82.2009 118.002L85.3226 98.1527C85.4214 97.5416 84.9501 96.9876 84.3331 96.9876ZM76.2814 108.275C75.7241 111.588 73.1053 113.812 69.7647 113.812C68.0874 113.812 66.7471 113.272 65.8861 112.249C65.0324 111.233 64.7083 109.786 64.9795 108.174C65.5002 104.889 68.163 102.592 71.4528 102.592C73.0929 102.592 74.4263 103.14 75.3047 104.172C76.1846 105.215 76.5338 106.671 76.2814 108.275V108.275Z" fill="#28356A"/>
<path fill-rule="evenodd" clip-rule="evenodd" d="M114.65 97.485H108.845C108.291 97.485 107.771 97.7613 107.457 98.2236L99.4516 110.063L96.0581 98.6854C95.8447 97.9736 95.1906 97.485 94.4495 97.485H88.746C88.0524 97.485 87.5712 98.1651 87.7915 98.8204L94.1852 117.659L88.1744 126.178C87.7016 126.849 88.1779 127.772 88.9945 127.772H94.7919C95.3422 127.772 95.857 127.503 96.1692 127.05L115.475 99.0699C115.937 98.4007 115.463 97.485 114.65 97.485" fill="#28356A"/>
<path fill-rule="evenodd" clip-rule="evenodd" d="M134.002 86.0206H121.939C121.115 86.0206 120.413 86.6228 120.284 87.4413L115.406 118.497C115.309 119.11 115.782 119.662 116.397 119.662H122.588C123.162 119.662 123.654 119.241 123.744 118.667L125.129 109.864C125.256 109.044 125.96 108.442 126.784 108.442H130.601C138.547 108.442 143.132 104.581 144.331 96.9313C144.872 93.5841 144.352 90.9546 142.791 89.1129C141.078 87.0906 138.04 86.0206 134.002 86.0206ZM135.394 97.3633C134.736 101.709 131.429 101.709 128.23 101.709H126.412L127.69 93.593C127.766 93.1024 128.186 92.7413 128.681 92.7413H129.516C131.692 92.7413 133.749 92.7413 134.81 93.9879C135.444 94.7314 135.636 95.8366 135.394 97.3633V97.3633Z" fill="#298FC2"/>
<path fill-rule="evenodd" clip-rule="evenodd" d="M170.356 96.9876H164.583C164.088 96.9876 163.666 97.3487 163.592 97.8392L163.336 99.4613L162.931 98.8735C161.68 97.051 158.893 96.4419 156.11 96.4419C149.727 96.4419 144.278 101.296 143.216 108.105C142.666 111.501 143.447 114.749 145.365 117.014C147.13 119.097 149.644 119.965 152.641 119.965C157.784 119.965 160.636 116.644 160.636 116.644L160.378 118.256C160.282 118.872 160.754 119.424 161.373 119.424H166.575C167.398 119.424 168.1 118.822 168.229 118.002L171.352 98.1527C171.448 97.5416 170.975 96.9876 170.356 96.9876ZM162.304 108.275C161.751 111.588 159.128 113.812 155.787 113.812C154.113 113.812 152.77 113.272 151.909 112.249C151.055 111.233 150.734 109.786 151.002 108.174C151.526 104.889 154.186 102.592 157.475 102.592C159.115 102.592 160.449 103.14 161.327 104.172C162.21 105.215 162.56 106.671 162.304 108.275V108.275Z" fill="#298FC2"/>
<path fill-rule="evenodd" clip-rule="evenodd" d="M176.687 86.8743L171.736 118.498C171.64 119.111 172.112 119.663 172.727 119.663H177.705C178.532 119.663 179.234 119.062 179.361 118.242L184.243 87.1878C184.34 86.5747 183.867 86.0206 183.252 86.0206H177.679C177.187 86.0221 176.763 86.3837 176.687 86.8743" fill="#298FC2"/>
</svg>
