<svg width="212" height="147" viewBox="0 0 212 147" fill="none" xmlns="http://www.w3.org/2000/svg">
<rect x="0.63562" y="0.703384" width="210.864" height="145.292" rx="14.5" fill="white" stroke="#F3F3F3"/>
<path d="M95.9901 103.272C95.7049 103.272 95.4746 103.041 95.4746 102.755V70.6713C95.4746 64.4926 100.487 59.4666 106.649 59.4666L116.096 59.4804C122.239 59.4925 127.235 64.5133 127.235 70.6713V77.4995C127.235 83.6782 122.222 88.7059 116.06 88.7059H102.707C102.422 88.7059 102.192 88.475 102.192 88.189C102.192 87.903 102.422 87.6721 102.707 87.6721H116.059C121.652 87.6721 126.202 83.1079 126.202 77.4995V70.6713C126.202 65.0819 121.669 60.5245 116.095 60.5142L106.649 60.5004C101.057 60.5004 96.5056 65.0629 96.5056 70.6713V102.757C96.5056 103.043 96.2754 103.274 95.9901 103.274V103.272Z" fill="#939598"/>
<path d="M137.832 88.8506C137.546 88.8506 137.316 88.6197 137.316 88.3337V64.3685C137.316 62.2355 135.584 60.4987 133.457 60.4987H129.359C129.073 60.4987 128.843 60.2678 128.843 59.9818C128.843 59.6958 129.073 59.4649 129.359 59.4649H133.457C136.153 59.4649 138.347 61.6652 138.347 64.3685V88.3337C138.347 88.6197 138.117 88.8506 137.832 88.8506Z" fill="#939598"/>
<path d="M136.952 56.2687L135.094 54.4044C134.634 53.9427 134.634 53.1949 135.094 52.7314L136.952 50.8689C137.414 50.4054 138.162 50.4054 138.624 50.8689L140.48 52.7314C140.94 53.1932 140.94 53.941 140.48 54.4044L138.615 56.2687C138.155 56.7305 137.406 56.7305 136.945 56.2687" fill="#32BCAD"/>
<path d="M167.071 73.2454C166.131 73.2454 165.191 72.887 164.476 72.1685L154.97 62.6369C153.58 61.243 151.731 60.4763 149.764 60.4763H145.697C145.411 60.4763 145.181 60.2454 145.181 59.9594C145.181 59.6734 145.411 59.4425 145.697 59.4425H149.764C152.005 59.4425 154.113 60.3178 155.699 61.9064L165.205 71.438C166.232 72.4684 167.904 72.4701 168.932 71.4397C168.934 71.4397 168.935 71.4363 168.937 71.4346L178.405 61.9426C179.989 60.354 182.096 59.4787 184.337 59.4787H187.646C187.932 59.4787 188.162 59.7096 188.162 59.9956C188.162 60.2816 187.932 60.5125 187.646 60.5125H184.339C182.373 60.5125 180.526 61.2792 179.135 62.6731L169.664 72.1685C169.664 72.1685 169.661 72.172 169.659 72.1737C168.944 72.887 168.007 73.2454 167.069 73.2454H167.071Z" fill="#939598"/>
<path d="M149.766 88.6404H145.7C145.415 88.6404 145.184 88.4095 145.184 88.1235C145.184 87.8375 145.415 87.6066 145.7 87.6066H149.766C151.733 87.6066 153.582 86.8399 154.972 85.446L164.478 75.9143C165.908 74.4808 168.236 74.4808 169.666 75.9143L179.137 85.4115C180.527 86.8054 182.376 87.5721 184.342 87.5721H187.648C187.933 87.5721 188.164 87.803 188.164 88.089C188.164 88.3751 187.933 88.6059 187.648 88.6059H184.342C182.101 88.6059 179.993 87.7307 178.407 86.142L168.935 76.6449C167.908 75.6145 166.234 75.6145 165.205 76.6449L155.699 86.1765C154.113 87.7651 152.005 88.6404 149.762 88.6404H149.766Z" fill="#939598"/>
<path d="M65.0117 95.8699C63.7349 95.8745 62.4698 95.6261 61.2896 95.139C60.1094 94.6518 59.0374 93.9356 58.1356 93.0318L48.2033 83.0932C47.852 82.7573 47.3847 82.5698 46.8986 82.5698C46.4125 82.5698 45.9452 82.7573 45.5939 83.0932L35.628 93.0591C34.7268 93.9642 33.6551 94.6818 32.4749 95.1704C31.2947 95.659 30.0293 95.9089 28.752 95.9056H26.8075L39.3933 108.491C41.2809 110.375 43.8386 111.433 46.5053 111.433C49.172 111.433 51.7297 110.375 53.6173 108.491L66.2283 95.8783L65.0117 95.8699Z" fill="#32BCAD"/>
<path d="M28.7541 60.7465C30.0315 60.7431 31.2968 60.9929 32.477 61.4815C33.6573 61.9701 34.7289 62.6878 35.6301 63.593L45.596 73.561C45.9424 73.9063 46.4116 74.1002 46.9007 74.1002C47.3898 74.1002 47.859 73.9063 48.2054 73.561L58.1356 63.6308C59.0361 62.7244 60.1076 62.0058 61.2879 61.5168C62.4683 61.0278 63.734 60.7781 65.0117 60.7822H66.2073L53.5963 48.1712C52.6625 47.237 51.5538 46.496 50.3335 45.9904C49.1132 45.4848 47.8052 45.2246 46.4843 45.2246C45.1634 45.2246 43.8555 45.4848 42.6352 45.9904C41.4149 46.496 40.3061 47.237 39.3723 48.1712L26.8075 60.7465H28.7541Z" fill="#32BCAD"/>
<path d="M76.6381 71.2152L69.0174 63.5945C68.8455 63.6648 68.6619 63.7018 68.4762 63.7036H65.0109C63.2077 63.7081 61.4791 64.4243 60.2011 65.6964L50.2709 75.6203C49.3766 76.5129 48.1646 77.0143 46.901 77.0143C45.6374 77.0143 44.4255 76.5129 43.5312 75.6203L33.5632 65.6586C32.2855 64.3857 30.5569 63.6688 28.7534 63.6638H24.4994C24.324 63.6598 24.1508 63.625 23.9875 63.561L16.3186 71.2152C14.435 73.1028 13.3771 75.6606 13.3771 78.3273C13.3771 80.9939 14.435 83.5517 16.3186 85.4393L23.9708 93.0914C24.1337 93.0262 24.3071 92.9914 24.4826 92.9886H28.7534C30.5568 92.9834 32.2854 92.2665 33.5632 90.9938L43.5291 81.028C45.3309 79.2282 48.4711 79.2282 50.2709 81.028L60.2011 90.956C61.4791 92.2281 63.2077 92.9443 65.0109 92.9488H68.4762C68.6619 92.9501 68.8457 92.9871 69.0174 93.0579L76.6381 85.4372C77.5723 84.5033 78.3133 83.3946 78.8189 82.1743C79.3245 80.954 79.5848 79.646 79.5848 78.3252C79.5848 77.0043 79.3245 75.6963 78.8189 74.476C78.3133 73.2557 77.5723 72.147 76.6381 71.2131" fill="#32BCAD"/>
</svg>
