<svg width="212" height="147" viewBox="0 0 212 147" fill="none" xmlns="http://www.w3.org/2000/svg">
<rect x="0.5" y="0.5" width="210.864" height="145.287" rx="14.5" fill="white" stroke="#F3F3F3"/>
<path d="M94.0669 100.328H79.9615L88.784 49.1249H102.889L94.0669 100.328Z" fill="#15195A"/>
<path d="M145.2 50.3775C142.418 49.3415 138.005 48.1976 132.549 48.1976C118.619 48.1976 108.81 55.1696 108.75 65.1374C108.634 72.4916 115.773 76.5764 121.112 79.0285C126.569 81.5342 128.424 83.1697 128.424 85.4032C128.369 88.8334 124.015 90.4146 119.954 90.4146C114.322 90.4146 111.305 89.5994 106.719 87.691L104.862 86.8729L102.888 98.3669C106.196 99.7815 112.291 101.037 118.619 101.092C133.419 101.092 143.055 94.2278 143.169 83.6055C143.225 77.7767 139.456 73.3105 131.329 69.6608C126.396 67.318 123.374 65.7383 123.374 63.3412C123.432 61.162 125.93 58.9299 131.499 58.9299C136.084 58.8206 139.454 59.8552 142.006 60.8905L143.282 61.4342L145.2 50.3775V50.3775V50.3775Z" fill="#15195A"/>
<path fill-rule="evenodd" clip-rule="evenodd" d="M170.449 49.1249H181.359L192.739 100.327H179.679C179.679 100.327 178.401 94.4442 177.996 92.6466H159.885C159.362 94.0077 156.925 100.327 156.925 100.327H142.125L163.076 53.3733C164.528 50.0502 167.084 49.1249 170.449 49.1249ZM169.58 67.8624C169.58 67.8624 165.11 79.247 163.948 82.1886H175.673C175.093 79.6286 172.421 67.3722 172.421 67.3722L171.436 62.9603C171.021 64.0964 170.42 65.6584 170.015 66.7119C169.741 67.426 169.556 67.9065 169.58 67.8624Z" fill="#15195A"/>
<path fill-rule="evenodd" clip-rule="evenodd" d="M18.8457 49.1249H41.5398C44.6159 49.2328 47.112 50.1588 47.9242 53.429L52.8557 76.9524C52.8564 76.9547 52.8572 76.957 52.8579 76.9593L54.3674 84.0406L68.1812 49.1249H83.0964L60.9252 100.274H46.0092L33.4371 55.7829C29.0993 53.4025 24.1487 51.488 18.6135 50.1595L18.8457 49.1249Z" fill="#15195A"/>
</svg>
